<?xml version="1.0" encoding="utf-8"?>
<!-- Generator: Adobe Illustrator 15.1.0, SVG Export Plug-In . SVG Version: 6.00 Build 0)  -->
<!DOCTYPE svg PUBLIC "-//W3C//DTD SVG 1.1//EN" "http://www.w3.org/Graphics/SVG/1.1/DTD/svg11.dtd">
<svg version="1.1" id="Layer_1" xmlns="http://www.w3.org/2000/svg" xmlns:xlink="http://www.w3.org/1999/xlink" x="0px" y="0px"
	 width="128px" height="128px" viewBox="-2.587 601.119 128 128" enable-background="new -2.587 601.119 128 128"
	 xml:space="preserve">
<g>
	<defs>
		<path id="SVGID_1_" d="M58.435,602.919L9.052,631.422c-1.85,1.063-2.984,3.033-2.984,5.162v57.046c0,2.133,1.135,4.1,2.984,5.166
			l49.385,28.527c1.846,1.062,4.125,1.062,5.968,0l49.378-28.527c1.84-1.066,2.977-3.033,2.977-5.166v-57.046
			c0-2.129-1.137-4.099-2.988-5.162l-49.372-28.503c-0.925-0.531-1.956-0.8-2.988-0.8c-1.03,0-2.063,0.269-2.988,0.8"/>
	</defs>
	<clipPath id="SVGID_2_">
		<use xlink:href="#SVGID_1_"  overflow="visible"/>
	</clipPath>
	<g transform="translate(-78.306 -164.016)" clip-path="url(#SVGID_2_)">
		
			<linearGradient id="SVGID_3_" gradientUnits="userSpaceOnUse" x1="81.6827" y1="766.7775" x2="83.0885" y2="766.7775" gradientTransform="matrix(-50.7531 103.536 103.536 50.7531 -75068.0781 -46616.9727)">
			<stop  offset="0.3" style="stop-color:#3E863D"/>
			<stop  offset="0.5" style="stop-color:#55934F"/>
			<stop  offset="0.8" style="stop-color:#5AAD45"/>
		</linearGradient>
		<path fill="url(#SVGID_3_)" d="M244.97,790.599L105.817,722.39L34.468,867.941l139.147,68.209L244.97,790.599z"/>
	</g>
</g>
<g>
	<defs>
		<path id="SVGID_4_" d="M7.292,697.254c0.47,0.614,1.062,1.145,1.758,1.542l42.362,24.468l7.055,4.057
			c1.057,0.609,2.259,0.869,3.439,0.779c0.395-0.033,0.787-0.103,1.171-0.214l52.083-95.368c-0.396-0.433-0.864-0.797-1.386-1.1
			L81.44,612.746l-17.092-9.835c-0.487-0.281-1.013-0.484-1.55-0.621L7.292,697.254z"/>
	</defs>
	<clipPath id="SVGID_5_">
		<use xlink:href="#SVGID_4_"  overflow="visible"/>
	</clipPath>
	<g transform="translate(-78.306 -164.016)" clip-path="url(#SVGID_5_)">
		
			<linearGradient id="SVGID_6_" gradientUnits="userSpaceOnUse" x1="72.2267" y1="762.3282" x2="73.1393" y2="762.3282" gradientTransform="matrix(142.4074 -105.2221 -105.2221 -142.4074 70002.6563 117038.2344)">
			<stop  offset="0.57" style="stop-color:#3E863D"/>
			<stop  offset="0.72" style="stop-color:#619857"/>
			<stop  offset="1" style="stop-color:#76AC64"/>
		</linearGradient>
		<path fill="url(#SVGID_6_)" d="M25.432,810.771l98.257,132.986l129.945-96.009l-98.262-132.979L25.432,810.771z"/>
	</g>
</g>
<g>
	<defs>
		<path id="SVGID_7_" d="M60.822,602.155c-0.829,0.082-1.639,0.336-2.387,0.764L9.195,631.34l53.099,96.717
			c0.737-0.108,1.465-0.354,2.119-0.733l49.384-28.527c1.525-0.884,2.568-2.38,2.885-4.075L62.55,602.254
			c-0.4-0.079-0.798-0.123-1.207-0.123c-0.164,0-0.328,0.008-0.492,0.024"/>
	</defs>
	<clipPath id="SVGID_8_">
		<use xlink:href="#SVGID_7_"  overflow="visible"/>
	</clipPath>
	<g transform="translate(-78.306 -164.016)" clip-path="url(#SVGID_8_)">
		
			<linearGradient id="SVGID_9_" gradientUnits="userSpaceOnUse" x1="74.6993" y1="759.5392" x2="75.5265" y2="759.5392" gradientTransform="matrix(129.8891 0 0 -129.8891 -9615.0352 99485.0156)">
			<stop  offset="0.16" style="stop-color:#6BBF47"/>
			<stop  offset="0.38" style="stop-color:#79B461"/>
			<stop  offset="0.47" style="stop-color:#75AC64"/>
			<stop  offset="0.7" style="stop-color:#659E5A"/>
			<stop  offset="0.9" style="stop-color:#3E863D"/>
		</linearGradient>
		<path fill="url(#SVGID_9_)" d="M87.499,766.147v125.926h107.466V766.147H87.499z"/>
	</g>
</g>
</svg>
