<?xml version="1.0" encoding="utf-8"?>
<!-- Generator: Adobe Illustrator 15.1.0, SVG Export Plug-In . SVG Version: 6.00 Build 0)  -->
<!DOCTYPE svg PUBLIC "-//W3C//DTD SVG 1.1//EN" "http://www.w3.org/Graphics/SVG/1.1/DTD/svg11.dtd">
<svg version="1.1" id="Layer_1" xmlns="http://www.w3.org/2000/svg" xmlns:xlink="http://www.w3.org/1999/xlink" x="0px" y="0px"
	 width="128px" height="128px" viewBox="-2.587 601.119 128 128" enable-background="new -2.587 601.119 128 128"
	 xml:space="preserve">
<path fill="#689F63" d="M60.679,704.315c-0.422,0-0.842-0.11-1.212-0.324l-3.859-2.284c-0.577-0.322-0.295-0.437-0.105-0.502
	c0.769-0.27,0.924-0.33,1.745-0.796c0.086-0.049,0.199-0.032,0.287,0.021l2.965,1.759c0.107,0.058,0.259,0.058,0.358,0l11.56-6.672
	c0.106-0.062,0.177-0.186,0.177-0.313v-13.34c0-0.133-0.07-0.251-0.18-0.318L60.86,674.88c-0.107-0.063-0.249-0.063-0.355,0
	l-11.553,6.666c-0.112,0.064-0.184,0.188-0.184,0.315v13.34c0,0.127,0.07,0.248,0.18,0.31l3.166,1.828
	c1.719,0.859,2.769-0.153,2.769-1.172v-13.165c0-0.188,0.147-0.333,0.336-0.333h1.464c0.182,0,0.333,0.145,0.333,0.333v13.171
	c0,2.292-1.25,3.608-3.423,3.608c-0.668,0-1.195,0-2.665-0.724l-3.033-1.747c-0.75-0.435-1.212-1.245-1.212-2.109v-13.34
	c0-0.867,0.463-1.678,1.212-2.106l11.571-6.675c0.732-0.414,1.704-0.414,2.431,0l11.556,6.678c0.747,0.432,1.213,1.239,1.213,2.106
	v13.34c0,0.865-0.466,1.672-1.213,2.106l-11.556,6.675c-0.371,0.214-0.79,0.324-1.218,0.324"/>
<path fill="#689F63" d="M64.249,695.124c-5.058,0-6.118-2.321-6.118-4.269c0-0.186,0.149-0.333,0.335-0.333h1.493
	c0.165,0,0.304,0.12,0.33,0.283c0.226,1.521,0.897,2.288,3.956,2.288c2.437,0,3.472-0.55,3.472-1.842
	c0-0.744-0.295-1.297-4.079-1.667c-3.166-0.313-5.122-1.01-5.122-3.541c0-2.333,1.967-3.722,5.263-3.722
	c3.701,0,5.535,1.285,5.767,4.045c0.009,0.096-0.026,0.188-0.09,0.258c-0.063,0.066-0.153,0.107-0.246,0.107h-1.501
	c-0.156,0-0.293-0.11-0.324-0.261c-0.362-1.601-1.236-2.112-3.611-2.112c-2.659,0-2.969,0.926-2.969,1.62
	c0,0.843,0.365,1.088,3.952,1.563c3.554,0.472,5.24,1.138,5.24,3.635c0,2.517-2.101,3.961-5.764,3.961 M78.313,680.991H78.7
	c0.318,0,0.379-0.223,0.379-0.353c0-0.342-0.234-0.342-0.364-0.342h-0.399L78.313,680.991z M77.841,679.897H78.7
	c0.295,0,0.874,0,0.874,0.66c0,0.46-0.296,0.556-0.472,0.613c0.344,0.023,0.367,0.249,0.413,0.567
	c0.023,0.199,0.062,0.544,0.131,0.659h-0.53c-0.014-0.115-0.095-0.752-0.095-0.787c-0.035-0.142-0.084-0.211-0.261-0.211h-0.437
	v1.001h-0.483V679.897z M76.808,681.141c0,1.036,0.836,1.875,1.863,1.875c1.036,0,1.872-0.856,1.872-1.875
	c0-1.038-0.848-1.863-1.875-1.863c-1.013,0-1.863,0.813-1.863,1.86 M80.903,681.147c0,1.228-1.004,2.229-2.229,2.229
	c-1.215,0-2.228-0.99-2.228-2.229c0-1.262,1.035-2.228,2.228-2.228c1.201,0,2.226,0.969,2.226,2.228"/>
<path fill="#333333" d="M24.883,652.122c0-0.531-0.281-1.021-0.74-1.285l-12.255-7.052c-0.207-0.122-0.439-0.186-0.674-0.194h-0.126
	c-0.235,0.009-0.467,0.072-0.677,0.194l-12.255,7.052c-0.457,0.266-0.741,0.755-0.741,1.287l0.027,18.993
	c0,0.264,0.136,0.509,0.368,0.64c0.226,0.139,0.509,0.139,0.735,0l7.286-4.173c0.46-0.273,0.741-0.758,0.741-1.285v-8.872
	c0-0.529,0.28-1.02,0.739-1.282l3.102-1.786c0.23-0.133,0.483-0.199,0.741-0.199c0.253,0,0.512,0.065,0.736,0.199l3.1,1.785
	c0.459,0.264,0.741,0.752,0.741,1.281v8.873c0,0.526,0.285,1.013,0.742,1.285l7.281,4.169c0.229,0.137,0.513,0.137,0.741,0
	c0.225-0.13,0.367-0.376,0.367-0.64L24.883,652.122z M82.715,662.01c0,0.133-0.07,0.256-0.186,0.32l-4.209,2.427
	c-0.114,0.065-0.256,0.065-0.37,0l-4.21-2.427c-0.115-0.064-0.185-0.188-0.185-0.32v-4.859c0-0.133,0.069-0.254,0.182-0.32
	l4.208-2.432c0.115-0.066,0.257-0.066,0.373,0l4.21,2.432c0.115,0.066,0.185,0.188,0.185,0.32L82.715,662.01z M83.852,626.015
	c-0.229-0.128-0.509-0.124-0.735,0.008c-0.226,0.134-0.365,0.376-0.365,0.64v18.808c0,0.185-0.099,0.356-0.259,0.448
	c-0.159,0.093-0.357,0.093-0.519,0l-3.069-1.768c-0.457-0.265-1.021-0.265-1.479,0l-12.26,7.075c-0.458,0.263-0.74,0.752-0.74,1.278
	v14.155c0,0.53,0.282,1.016,0.74,1.282l12.26,7.08c0.458,0.264,1.021,0.264,1.48,0l12.26-7.083c0.457-0.267,0.741-0.752,0.741-1.282
	V631.38c0-0.537-0.293-1.031-0.762-1.293L83.852,626.015z M124.678,657.023c0.455-0.265,0.735-0.753,0.735-1.279v-3.431
	c0-0.527-0.281-1.015-0.737-1.28l-12.182-7.071c-0.46-0.267-1.024-0.267-1.484,0l-12.257,7.074c-0.46,0.266-0.74,0.752-0.74,1.281
	v14.149c0,0.532,0.286,1.024,0.746,1.288l12.179,6.941c0.448,0.258,0.999,0.261,1.453,0.009l7.366-4.095
	c0.231-0.13,0.379-0.376,0.379-0.642c0-0.267-0.142-0.516-0.373-0.646l-12.332-7.078c-0.231-0.13-0.373-0.376-0.373-0.639v-4.439
	c0-0.265,0.139-0.509,0.37-0.641l3.837-2.214c0.229-0.133,0.509-0.133,0.738,0l3.839,2.214c0.229,0.13,0.371,0.376,0.371,0.639v3.49
	c0,0.264,0.142,0.51,0.37,0.643c0.229,0.13,0.512,0.13,0.74-0.003L124.678,657.023z"/>
<path fill="#689F63" d="M111.573,656.362c0.086-0.052,0.195-0.052,0.283,0l2.353,1.356c0.088,0.051,0.142,0.145,0.142,0.246v2.717
	c0,0.101-0.054,0.195-0.142,0.246l-2.353,1.356c-0.088,0.052-0.197,0.052-0.283,0l-2.352-1.356c-0.09-0.051-0.145-0.146-0.145-0.246
	v-2.717c0-0.102,0.052-0.195,0.142-0.246L111.573,656.362z"/>
<g>
	<defs>
		<path id="SVGID_1_" d="M43.919,644.032l-12.19,7.036c-0.457,0.263-0.737,0.749-0.737,1.274v14.082c0,0.526,0.28,1.012,0.737,1.275
			l12.191,7.042c0.456,0.262,1.018,0.262,1.473,0l12.189-7.042c0.454-0.264,0.735-0.749,0.735-1.275v-14.082
			c0-0.525-0.281-1.012-0.738-1.274l-12.188-7.036c-0.229-0.131-0.483-0.197-0.738-0.197c-0.254,0-0.509,0.066-0.738,0.197"/>
	</defs>
	<clipPath id="SVGID_2_">
		<use xlink:href="#SVGID_1_"  overflow="visible"/>
	</clipPath>
	<g transform="translate(-78.306 -164.016)" clip-path="url(#SVGID_2_)">
		
			<linearGradient id="SVGID_3_" gradientUnits="userSpaceOnUse" x1="82.2306" y1="766.6251" x2="82.5777" y2="766.6251" gradientTransform="matrix(-50.7531 103.536 103.536 50.7531 -75068.0781 -46616.9727)">
			<stop  offset="0.3" style="stop-color:#3E863D"/>
			<stop  offset="0.5" style="stop-color:#55934F"/>
			<stop  offset="0.8" style="stop-color:#5AAD45"/>
		</linearGradient>
		<path fill="url(#SVGID_3_)" d="M148.942,813.89l-34.351-16.838l-17.613,35.93l34.349,16.838L148.942,813.89z"/>
	</g>
</g>
<g>
	<defs>
		<path id="SVGID_4_" d="M31.294,667.319c0.116,0.151,0.262,0.282,0.434,0.381l10.457,6.04l1.742,1.001
			c0.261,0.15,0.558,0.215,0.849,0.192c0.097-0.008,0.194-0.025,0.289-0.053l12.857-23.542c-0.098-0.106-0.213-0.196-0.342-0.271
			l-7.982-4.609l-4.219-2.428c-0.12-0.069-0.25-0.119-0.382-0.153L31.294,667.319z"/>
	</defs>
	<clipPath id="SVGID_5_">
		<use xlink:href="#SVGID_4_"  overflow="visible"/>
	</clipPath>
	<g transform="translate(-78.306 -164.016)" clip-path="url(#SVGID_5_)">
		
			<linearGradient id="SVGID_6_" gradientUnits="userSpaceOnUse" x1="72.5147" y1="762.4103" x2="72.7398" y2="762.4103" gradientTransform="matrix(142.4074 -105.2221 -105.2221 -142.4074 70002.6563 117038.2344)">
			<stop  offset="0.57" style="stop-color:#3E863D"/>
			<stop  offset="0.72" style="stop-color:#619857"/>
			<stop  offset="1" style="stop-color:#76AC64"/>
		</linearGradient>
		<path fill="url(#SVGID_6_)" d="M94.748,818.869l24.255,32.828l32.078-23.7l-24.256-32.826L94.748,818.869z"/>
	</g>
</g>
<g>
	<defs>
		<path id="SVGID_7_" d="M44.508,643.844c-0.205,0.021-0.404,0.083-0.589,0.188l-12.155,7.016l13.107,23.875
			c0.182-0.026,0.362-0.087,0.523-0.181l12.19-7.042c0.376-0.219,0.634-0.588,0.712-1.006l-13.362-22.826
			c-0.099-0.02-0.197-0.03-0.298-0.03c-0.041,0-0.081,0.002-0.122,0.006"/>
	</defs>
	<clipPath id="SVGID_8_">
		<use xlink:href="#SVGID_7_"  overflow="visible"/>
	</clipPath>
	<g transform="translate(-78.306 -164.016)" clip-path="url(#SVGID_8_)">
		
			<linearGradient id="SVGID_9_" gradientUnits="userSpaceOnUse" x1="74.8731" y1="759.5841" x2="75.0772" y2="759.5841" gradientTransform="matrix(129.8891 0 0 -129.8891 -9615.0352 99485.0156)">
			<stop  offset="0.16" style="stop-color:#6BBF47"/>
			<stop  offset="0.38" style="stop-color:#79B461"/>
			<stop  offset="0.47" style="stop-color:#75AC64"/>
			<stop  offset="0.7" style="stop-color:#659E5A"/>
			<stop  offset="0.9" style="stop-color:#3E863D"/>
		</linearGradient>
		<path fill="url(#SVGID_9_)" d="M110.069,807.854v31.085h26.528v-31.085H110.069z"/>
	</g>
</g>
</svg>
