<svg xmlns="http://www.w3.org/2000/svg" viewBox="0 523.5 128 128" xml:space="preserve" class="text-[#0C344B] dark:text-white">
  <path fill="currentColor" d="m104.146 635.324-54.361 16.078c-1.661.491-3.252-.944-2.904-2.62l19.42-93.006c.364-1.738 2.768-2.015 3.526-.403l35.958 76.355c.678 1.44-.096 3.14-1.639 3.596zm9.323-19.595-41.634-88.41v-.002c-1.054-2.218-3.239-3.68-5.692-3.805-2.533-.146-4.804 1.075-6.084 3.153l-45.154 73.137c-1.4 2.255-1.369 5.116.08 7.342l22.072 34.191c1.316 2.041 3.595 3.222 5.963 3.222.671 0 1.347-.094 2.011-.291l64.07-18.949c1.951-.572 3.559-1.962 4.407-3.81.836-1.839.822-3.952-.039-5.778z"/>
</svg>
