<?xml version="1.0" encoding="utf-8"?>
<!-- Generator: Adobe Illustrator 15.1.0, SVG Export Plug-In . SVG Version: 6.00 Build 0)  -->
<!DOCTYPE svg PUBLIC "-//W3C//DTD SVG 1.1//EN" "http://www.w3.org/Graphics/SVG/1.1/DTD/svg11.dtd">
<svg version="1.1" xmlns="http://www.w3.org/2000/svg" xmlns:xlink="http://www.w3.org/1999/xlink" x="0px" y="0px"
	 width="131.033px" height="218.067px" viewBox="0 0 131.033 218.067" enable-background="new 0 0 131.033 218.067"
	 xml:space="preserve">
<g id="Layer_3">
</g>
<g id="S" opacity="0.5">
	<path opacity="0.5" fill="#2BB673" d="M65.516,465.68c0,8.396-6.304,15.203-14.08,15.203h-81.976
		c-7.776,0-14.08-6.807-14.08-15.203l0,0c0-8.396,6.304-15.203,14.08-15.203h81.976C59.212,450.478,65.516,457.284,65.516,465.68
		L65.516,465.68z"/>
	<path opacity="0.5" fill="#2BB673" d="M350.638,465.68c0,8.396-6.305,15.203-14.08,15.203h-81.976
		c-7.776,0-14.08-6.807-14.08-15.203l0,0c0-8.396,6.304-15.203,14.08-15.203h81.976C344.333,450.478,350.638,457.284,350.638,465.68
		L350.638,465.68z"/>
	<path opacity="0.5" fill="#2BB673" d="M74.3,552.604c0,8.396-6.807,15.203-15.203,15.203h-88.514
		c-8.396,0-15.203-6.807-15.203-15.203l0,0c0-8.396,6.807-15.203,15.203-15.203h88.514C67.493,537.401,74.3,544.208,74.3,552.604
		L74.3,552.604z"/>
	<path opacity="0.5" fill="#2BB673" d="M-29.417,569.396c-8.396,0-15.203-6.807-15.203-15.202V465.68
		c0-8.396,6.807-15.203,15.203-15.203l0,0c8.396,0,15.203,6.807,15.203,15.203v88.514C-14.214,562.59-21.021,569.396-29.417,569.396
		L-29.417,569.396z"/>
	<path opacity="0.5" fill="#2BB673" d="M59.097,668.045c-8.396,0-15.203-7.464-15.203-16.671V554.31
		c0-9.207,6.807-16.671,15.203-16.671l0,0c8.396,0,15.203,7.464,15.203,16.671v97.064C74.3,660.581,67.493,668.045,59.097,668.045
		L59.097,668.045z"/>
	<circle opacity="0.4" fill="#2BB673" cx="48.786" cy="465.329" r="15.351"/>
	<path opacity="0.5" fill="#2BB673" d="M352.017,471.737c0,11.741-6.305,21.26-14.08,21.26h-81.976
		c-7.776,0-14.08-9.519-14.08-21.26l0,0c0-11.741,6.304-21.26,14.08-21.26h81.976C345.712,450.478,352.017,459.996,352.017,471.737
		L352.017,471.737z"/>
	<path opacity="0.5" fill="#2BB673" d="M360.8,552.604c0,8.396-6.807,15.203-15.203,15.203h-88.514
		c-8.396,0-15.202-6.807-15.202-15.203l0,0c0-8.396,6.807-15.203,15.202-15.203h88.514C353.993,537.401,360.8,544.208,360.8,552.604
		L360.8,552.604z"/>
	<path opacity="0.5" fill="#2BB673" d="M257.083,569.396c-8.396,0-15.202-6.807-15.202-15.202V465.68
		c0-8.396,6.807-15.203,15.202-15.203l0,0c8.396,0,15.203,6.807,15.203,15.203v88.514
		C272.286,562.59,265.479,569.396,257.083,569.396L257.083,569.396z"/>
	<path opacity="0.5" fill="#2BB673" d="M345.597,668.045c-8.396,0-15.202-7.464-15.202-16.671V554.31
		c0-9.207,6.807-16.671,15.202-16.671l0,0c8.396,0,15.203,7.464,15.203,16.671v97.064
		C360.8,660.581,353.993,668.045,345.597,668.045L345.597,668.045z"/>
	<circle opacity="0.4" fill="#2BB673" cx="335.286" cy="465.329" r="15.352"/>
	<path opacity="0.5" fill="#2BB673" d="M120.871,15.703c0,8.396-6.305,15.203-14.08,15.203H24.815
		c-7.776,0-14.08-6.807-14.08-15.203l0,0c0-8.396,6.304-15.203,14.08-15.203h81.976C114.566,0.5,120.871,7.307,120.871,15.703
		L120.871,15.703z"/>
	<path opacity="0.5" fill="#2BB673" d="M122.25,21.76c0,11.741-6.305,21.26-14.08,21.26H26.194c-7.776,0-14.08-9.519-14.08-21.26
		l0,0c0-11.741,6.304-21.26,14.08-21.26h81.976C115.945,0.5,122.25,10.019,122.25,21.76L122.25,21.76z"/>
	<path opacity="0.5" fill="#2BB673" d="M131.033,102.626c0,8.396-6.807,15.203-15.203,15.203H27.316
		c-8.396,0-15.202-6.807-15.202-15.203l0,0c0-8.396,6.807-15.203,15.202-15.203h88.514
		C124.227,87.424,131.033,94.23,131.033,102.626L131.033,102.626z"/>
	<path opacity="0.5" fill="#2BB673" d="M27.316,119.419c-8.396,0-15.202-6.807-15.202-15.202V15.703
		c0-8.396,6.807-15.203,15.202-15.203l0,0c8.396,0,15.203,6.807,15.203,15.203v88.514C42.52,112.612,35.713,119.419,27.316,119.419
		L27.316,119.419z"/>
	<path opacity="0.5" fill="#2BB673" d="M115.83,218.067c-8.396,0-15.202-7.464-15.202-16.671v-97.064
		c0-9.207,6.807-16.671,15.202-16.671l0,0c8.396,0,15.203,7.464,15.203,16.671v97.064
		C131.033,210.604,124.227,218.067,115.83,218.067L115.83,218.067z"/>
	<circle opacity="0.4" fill="#2BB673" cx="105.52" cy="15.352" r="15.352"/>
	<circle display="none" opacity="0.4" fill="#00AEEF" cx="-29.565" cy="641.206" r="15.351"/>
</g>
<g id="H" opacity="0.4">
	<path fill="#4DC1E5" d="M251.025,656.558c-11.74,0-21.259-6.807-21.259-15.201v-88.515c0-8.396,9.519-15.203,21.259-15.203l0,0
		c11.742,0,21.261,6.807,21.261,15.203v88.515C272.286,649.751,262.768,656.558,251.025,656.558L251.025,656.558z"/>
	<path fill="#4DC1E5" d="M251.025,569.396c-11.74,0-21.259-6.807-21.259-15.202V465.68c0-8.396,9.519-15.203,21.259-15.203l0,0
		c11.742,0,21.261,6.807,21.261,15.203v88.514C272.286,562.59,262.768,569.396,251.025,569.396L251.025,569.396z"/>
	<path fill="#00AEEF" d="M257.084,656.558c-8.396,0-15.203-6.807-15.203-15.201v-88.515c0-8.396,6.807-15.203,15.203-15.203l0,0
		c8.396,0,15.202,6.807,15.202,15.203v88.515C272.286,649.751,265.479,656.558,257.084,656.558L257.084,656.558z"/>
	<path fill="#59B8E8" d="M257.084,569.396c-8.396,0-15.203-6.807-15.203-15.202V465.68c0-8.396,6.807-15.203,15.203-15.203l0,0
		c8.396,0,15.202,6.807,15.202,15.203v88.514C272.286,562.59,265.479,569.396,257.084,569.396L257.084,569.396z"/>
	<path fill="#00AEEF" d="M-29.417,656.558c-8.396,0-15.203-6.807-15.203-15.201v-88.515c0-8.396,6.807-15.203,15.203-15.203l0,0
		c8.396,0,15.203,6.807,15.203,15.203v88.515C-14.214,649.751-21.021,656.558-29.417,656.558L-29.417,656.558z"/>
	<path fill="#00AEEF" d="M74.3,552.604c0,8.396-6.807,15.203-15.203,15.203h-88.514c-8.396,0-15.203-6.807-15.203-15.203l0,0
		c0-8.396,6.807-15.203,15.203-15.203h88.514C67.493,537.401,74.3,544.208,74.3,552.604L74.3,552.604z"/>
	<path fill="#00AEEF" d="M-29.417,569.396c-8.396,0-15.203-6.807-15.203-15.202V465.68c0-8.396,6.807-15.203,15.203-15.203l0,0
		c8.396,0,15.203,6.807,15.203,15.203v88.514C-14.214,562.59-21.021,569.396-29.417,569.396L-29.417,569.396z"/>
	<path fill="#00AEEF" d="M59.097,668.045c-8.396,0-15.203-7.464-15.203-16.671V554.31c0-9.207,6.807-16.671,15.203-16.671l0,0
		c8.396,0,15.203,7.464,15.203,16.671v97.064C74.3,660.581,67.493,668.045,59.097,668.045L59.097,668.045z"/>
	<path fill="#00AEEF" d="M360.8,558.661c0,11.741-6.807,21.26-15.203,21.26h-88.514c-8.396,0-15.202-9.519-15.202-21.26l0,0
		c0-11.741,6.807-21.26,15.202-21.26h88.514C353.993,537.401,360.8,546.92,360.8,558.661L360.8,558.661z"/>
	<path fill="#00AEEF" d="M339.539,668.045c-11.74,0-21.259-7.464-21.259-16.671V554.31c0-9.207,9.519-16.671,21.259-16.671l0,0
		c11.742,0,21.261,7.464,21.261,16.671v97.064C360.8,660.581,351.281,668.045,339.539,668.045L339.539,668.045z"/>
	<path fill="#4DC1E5" d="M21.259,206.58C9.519,206.58,0,199.773,0,191.379v-88.515c0-8.396,9.519-15.203,21.259-15.203l0,0
		c11.742,0,21.261,6.807,21.261,15.203v88.515C42.52,199.773,33.001,206.58,21.259,206.58L21.259,206.58z"/>
	<path fill="#4DC1E5" d="M21.259,119.419C9.519,119.419,0,112.612,0,104.217V15.703C0,7.307,9.519,0.5,21.259,0.5l0,0
		c11.742,0,21.261,6.807,21.261,15.203v88.514C42.52,112.612,33.001,119.419,21.259,119.419L21.259,119.419z"/>
	<path fill="#00AEEF" d="M27.317,206.58c-8.396,0-15.203-6.807-15.203-15.201v-88.515c0-8.396,6.807-15.203,15.203-15.203l0,0
		c8.396,0,15.202,6.807,15.202,15.203v88.515C42.52,199.773,35.713,206.58,27.317,206.58L27.317,206.58z"/>
	<path fill="#59B8E8" d="M27.317,119.419c-8.396,0-15.203-6.807-15.203-15.202V15.703c0-8.396,6.807-15.203,15.203-15.203l0,0
		c8.396,0,15.202,6.807,15.202,15.203v88.514C42.52,112.612,35.713,119.419,27.317,119.419L27.317,119.419z"/>
	<path fill="#00AEEF" d="M131.033,108.684c0,11.741-6.807,21.26-15.203,21.26H27.316c-8.396,0-15.202-9.519-15.202-21.26l0,0
		c0-11.741,6.807-21.26,15.202-21.26h88.514C124.227,87.424,131.033,96.942,131.033,108.684L131.033,108.684z"/>
	<path fill="#00AEEF" d="M109.772,218.067c-11.74,0-21.259-7.464-21.259-16.671v-97.064c0-9.207,9.519-16.671,21.259-16.671l0,0
		c11.742,0,21.261,7.464,21.261,16.671v97.064C131.033,210.604,121.515,218.067,109.772,218.067L109.772,218.067z"/>
</g>
<g id="Layer_4">
	<rect x="203.223" y="51.677" fill="none" width="417.915" height="114.014"/>
	<text transform="matrix(1 0 0 1 203.2227 145.2769)" font-family="'Jost-Regular'" font-size="120">hyneks</text>
</g>
</svg>
