<?xml version="1.0" encoding="utf-8"?>
<!-- Generator: Adobe Illustrator 15.1.0, SVG Export Plug-In . SVG Version: 6.00 Build 0)  -->
<!DOCTYPE svg PUBLIC "-//W3C//DTD SVG 1.1//EN" "http://www.w3.org/Graphics/SVG/1.1/DTD/svg11.dtd">
<svg version="1.1" id="Layer_1" xmlns="http://www.w3.org/2000/svg" xmlns:xlink="http://www.w3.org/1999/xlink" x="0px" y="0px"
	 width="128px" height="128px" viewBox="0 0 128 128" enable-background="new 0 0 128 128" xml:space="preserve">
<g>
	<path fill="#262F3E" d="M36.072,53.527c0,1.575,0.17,2.853,0.468,3.789c0.341,0.937,0.766,1.958,1.362,3.065
		c0.213,0.34,0.298,0.681,0.298,0.979c0,0.426-0.255,0.852-0.809,1.277l-2.682,1.788c-0.383,0.255-0.767,0.383-1.107,0.383
		c-0.426,0-0.852-0.213-1.277-0.596c-0.596-0.639-1.107-1.32-1.533-2.001c-0.426-0.724-0.852-1.532-1.32-2.512
		c-3.321,3.917-7.493,5.875-12.516,5.875c-3.576,0-6.428-1.021-8.514-3.065c-2.086-2.043-3.15-4.768-3.15-8.174
		c0-3.618,1.277-6.556,3.874-8.77c2.597-2.214,6.045-3.32,10.43-3.32c1.447,0,2.938,0.128,4.512,0.341
		c1.575,0.213,3.193,0.553,4.896,0.937v-3.108c0-3.235-0.681-5.491-2.001-6.811c-1.362-1.32-3.661-1.959-6.939-1.959
		c-1.49,0-3.022,0.171-4.598,0.554s-3.108,0.852-4.598,1.447c-0.681,0.298-1.192,0.469-1.49,0.554
		c-0.298,0.085-0.511,0.128-0.681,0.128c-0.596,0-0.894-0.426-0.894-1.32v-2.086c0-0.681,0.085-1.191,0.298-1.49
		c0.213-0.298,0.596-0.596,1.192-0.894c1.49-0.767,3.278-1.405,5.364-1.916c2.086-0.554,4.3-0.809,6.641-0.809
		c5.066,0,8.77,1.149,11.154,3.448c2.341,2.299,3.533,5.79,3.533,10.473v13.793H36.072z M18.788,59.998
		c1.405,0,2.853-0.255,4.385-0.766c1.533-0.512,2.895-1.448,4.044-2.725c0.681-0.81,1.192-1.703,1.447-2.725
		c0.256-1.022,0.426-2.257,0.426-3.704v-1.788c-1.234-0.298-2.554-0.554-3.917-0.724s-2.682-0.256-4.001-0.256
		c-2.853,0-4.938,0.554-6.343,1.703s-2.086,2.768-2.086,4.896c0,2.001,0.511,3.491,1.575,4.513
		C15.339,59.487,16.83,59.998,18.788,59.998z M52.973,64.596c-0.767,0-1.277-0.128-1.618-0.426c-0.341-0.255-0.639-0.851-0.894-1.66
		L40.457,29.603c-0.255-0.852-0.383-1.405-0.383-1.703c0-0.681,0.34-1.064,1.021-1.064h4.172c0.809,0,1.362,0.128,1.661,0.426
		c0.34,0.256,0.596,0.852,0.851,1.66l7.152,28.183l6.642-28.183c0.212-0.852,0.468-1.404,0.809-1.66
		c0.341-0.255,0.937-0.426,1.703-0.426h3.406c0.809,0,1.362,0.128,1.703,0.426c0.341,0.256,0.639,0.852,0.809,1.66l6.727,28.523
		l7.364-28.523c0.256-0.852,0.554-1.404,0.852-1.66c0.341-0.255,0.895-0.426,1.661-0.426h3.959c0.681,0,1.064,0.341,1.064,1.064
		c0,0.213-0.043,0.426-0.086,0.681c-0.042,0.256-0.127,0.597-0.298,1.064l-10.26,32.908c-0.255,0.852-0.554,1.404-0.894,1.66
		c-0.341,0.255-0.895,0.426-1.618,0.426h-3.661c-0.809,0-1.362-0.128-1.703-0.426c-0.34-0.298-0.638-0.852-0.809-1.703
		l-6.598-27.458l-6.556,27.416c-0.213,0.852-0.468,1.404-0.809,1.702c-0.341,0.298-0.937,0.426-1.703,0.426H52.973z M107.677,65.745
		c-2.214,0-4.428-0.255-6.556-0.766c-2.129-0.512-3.789-1.064-4.896-1.703c-0.682-0.384-1.15-0.809-1.32-1.192
		c-0.17-0.383-0.255-0.809-0.255-1.191v-2.172c0-0.894,0.34-1.319,0.979-1.319c0.256,0,0.511,0.043,0.767,0.128
		c0.255,0.085,0.639,0.255,1.064,0.426c1.447,0.639,3.022,1.149,4.683,1.49c1.703,0.34,3.363,0.511,5.066,0.511
		c2.682,0,4.768-0.469,6.215-1.405s2.214-2.299,2.214-4.044c0-1.192-0.383-2.172-1.149-2.98s-2.214-1.532-4.3-2.214l-6.173-1.915
		c-3.107-0.979-5.406-2.427-6.812-4.343c-1.404-1.873-2.129-3.959-2.129-6.173c0-1.788,0.384-3.363,1.15-4.726
		c0.766-1.362,1.787-2.554,3.064-3.49c1.277-0.979,2.725-1.703,4.428-2.214s3.491-0.724,5.364-0.724c0.937,0,1.915,0.042,2.852,0.17
		c0.979,0.128,1.874,0.298,2.768,0.469c0.852,0.213,1.66,0.425,2.427,0.681s1.362,0.511,1.788,0.767
		c0.596,0.341,1.021,0.681,1.277,1.064c0.255,0.34,0.383,0.809,0.383,1.404v2.001c0,0.895-0.341,1.362-0.979,1.362
		c-0.341,0-0.894-0.17-1.617-0.511c-2.427-1.107-5.151-1.66-8.174-1.66c-2.427,0-4.343,0.383-5.662,1.191
		c-1.32,0.81-2.001,2.044-2.001,3.789c0,1.192,0.426,2.214,1.277,3.022c0.852,0.81,2.427,1.618,4.683,2.342l6.045,1.916
		c3.065,0.979,5.279,2.341,6.599,4.087c1.32,1.745,1.959,3.746,1.959,5.96c0,1.83-0.384,3.49-1.107,4.938
		c-0.767,1.448-1.788,2.725-3.107,3.747c-1.32,1.063-2.896,1.83-4.726,2.384C111.849,65.447,109.848,65.745,107.677,65.745z"/>
	<g>
		<path fill="#F8991D" d="M115.723,86.435c-14.006,10.346-34.355,15.837-51.852,15.837c-24.521,0-46.616-9.067-63.304-24.138
			c-1.319-1.192-0.127-2.81,1.448-1.873c18.05,10.472,40.315,16.815,63.346,16.815c15.539,0,32.61-3.235,48.319-9.877
			C116.021,82.135,118.021,84.732,115.723,86.435z"/>
		<path fill="#F8991D" d="M121.556,79.794c-1.789-2.299-11.835-1.107-16.391-0.554c-1.362,0.17-1.575-1.021-0.341-1.916
			c8.004-5.619,21.158-4.001,22.69-2.128c1.533,1.916-0.425,15.07-7.918,21.37c-1.149,0.979-2.256,0.469-1.745-0.809
			C119.555,91.543,123.343,82.05,121.556,79.794z"/>
	</g>
</g>
</svg>
