<svg xmlns="http://www.w3.org/2000/svg" viewBox="0 0 128 128" xml:space="preserve">
  <path d="m82.219 26.891 11.549-11.988H0v11.988h82.219zM81.347 62.339l44.794-46.088h-16.325L72.211 54.596l9.136 7.743zM116.011 79.798c0 11.769-9.541 21.311-21.311 21.311-9.506 0-17.565-6.227-20.309-14.833l-1.68-5.269-9.599 9.599.877 2.086c5.037 11.982 16.886 20.406 30.71 20.406 18.392 0 33.3-14.909 33.3-33.3 0-12.179-6.646-22.725-16.319-28.521l-2.269-1.358-8.79 8.902 4.011 2.116c6.773 3.577 11.379 10.683 11.379 18.861zM43.678 110.27V37.127H31.689v73.143h11.989z"/>
</svg>
