<?xml version="1.0" standalone="no"?>
<!DOCTYPE svg PUBLIC "-//W3C//DTD SVG 20010904//EN"
 "http://www.w3.org/TR/2001/REC-SVG-20010904/DTD/svg10.dtd">
<svg version="1.0" xmlns="http://www.w3.org/2000/svg"
 width="700.000000pt" height="700.000000pt" viewBox="0 0 700.000000 700.000000"
 preserveAspectRatio="xMidYMid meet">
<metadata>
Created by potrace 1.14, written by Peter Selinger 2001-2017
</metadata>
<g transform="translate(0.000000,700.000000) scale(0.100000,-0.100000)"
fill="#000000" stroke="none">
<path d="M0 3500 l0 -3500 3500 0 3500 0 0 3500 0 3500 -3500 0 -3500 0 0
-3500z m5618 541 c311 -64 555 -222 733 -475 27 -39 48 -74 46 -79 -1 -4 -117
-91 -257 -192 l-255 -184 -30 37 c-173 215 -341 318 -535 330 -234 13 -385
-95 -398 -284 -4 -62 -1 -80 21 -127 66 -144 171 -212 614 -396 408 -169 538
-242 668 -375 187 -192 274 -436 262 -731 -12 -276 -99 -481 -281 -660 -134
-133 -292 -218 -497 -269 -316 -78 -675 -48 -954 79 -152 69 -322 197 -434
328 -63 73 -166 216 -160 221 17 13 520 367 541 380 l26 17 64 -93 c115 -169
244 -280 384 -329 75 -27 233 -37 312 -19 129 28 244 120 278 223 59 177 -22
353 -214 466 -37 22 -184 88 -327 146 -436 179 -579 259 -722 408 -121 127
-191 259 -229 432 -20 96 -23 321 -5 410 82 402 358 663 781 739 131 24 144
24 310 21 108 -2 186 -10 258 -24z m-3498 -676 l0 -615 480 0 480 0 0 615 0
615 365 0 365 0 0 -1650 0 -1650 -365 0 -365 0 0 715 0 715 -480 0 -480 0 0
-715 0 -715 -365 0 -365 0 0 1650 0 1650 365 0 365 0 0 -615z"/>
</g>
</svg>
