<svg xmlns="http://www.w3.org/2000/svg" viewBox="0 0 128 128" xml:space="preserve">
  <path fill="#398CCB" d="M37.5 0h53C111.211 0 128 16.789 128 37.5v53c0 20.711-16.789 37.5-37.5 37.5h-53C16.789 128 0 111.211 0 90.5v-53C0 16.789 16.789 0 37.5 0z"/>
  <path fill="#FFF" d="m63.861 18.75 17.77 10.252v5.637l21.508 12.42v21.247l5.769 3.331v20.515L91.15 102.404l-7.883-4.559-19.168 11.067-19.055-11.004-7.773 4.496-17.757-10.269V71.637l5.544-3.201V47.06l21.046-12.15h.012v-5.907L63.861 18.75zm17.77 21.22v9.536L63.873 59.758 46.115 49.506v-9.272h-.012l-16.431 9.491v16.046l7.599-4.386 17.757 10.252v20.498l-5.373 3.106 14.442 8.34 14.556-8.403-5.262-3.043V71.637L91.15 61.385l7.373 4.256V49.725L81.631 39.97zm-3.623 49.522V76.979l10.834 6.254v12.513l-10.834-6.254zm26.284-12.531-10.834 6.254v12.531l10.834-6.271V76.961zM24.129 89.475V76.961l10.834 6.254v12.513l-10.834-6.253zm26.285-12.514-10.835 6.254v12.513l10.835-6.253V76.961zm29.901-3.981 10.834-6.253 10.834 6.253-10.833 6.26-10.835-6.26zm-43.044-6.271L26.437 72.98l10.835 6.243 10.834-6.243-10.835-6.271zM50.73 46.84V34.327l10.823 6.259v12.508L50.73 46.84zm26.274-12.513-10.823 6.259v12.502l10.823-6.248V34.327zm-23.965-3.993 10.823-6.253 10.835 6.253-10.835 6.254-10.823-6.254z"/>
</svg>
