<svg version="1.1" id="Layer_1" xmlns="http://www.w3.org/2000/svg" xmlns:xlink="http://www.w3.org/1999/xlink" x="0px" y="0px"
	 viewBox="0 0 128 128" enable-background="new 0 0 128 128" xml:space="preserve">
<path fill="#07B6D5" d="M62.606,25.595c-22.519,0.716-29.211,16.802-30.745,25.517c1.999-3.23,8.296-10.318,17.569-10.318
	c10.806,0,19.033,12.061,24.052,15.826c6.099,4.574,18.353,10.613,34.44,5.717c12.827-3.904,18.776-17.522,20.078-23.983
	c-6.205,8.436-15.616,13.502-27.26,7.529C92.724,41.77,86.728,24.829,62.606,25.595z"/>
<path fill="#07B6D5" d="M30.745,63.87C8.227,64.586,1.534,80.672,0,89.387c1.999-3.23,8.296-10.318,17.569-10.318
	c10.806,0,19.032,12.061,24.052,15.825c6.098,4.574,18.353,10.613,34.439,5.717c12.828-3.903,18.777-17.521,20.079-23.982
	c-6.205,8.436-15.617,13.503-27.26,7.529C60.863,80.044,54.867,63.104,30.745,63.87z"/>
</svg>
