<svg version="1.1" id="Layer_1" xmlns="http://www.w3.org/2000/svg" xmlns:xlink="http://www.w3.org/1999/xlink" x="0px" y="0px"
	 width="128px" height="128px" viewBox="0 0 128 128" enable-background="new 0 0 128 128" xml:space="preserve">
<path fill="#F04B3A" d="M25.291,16.429c0,17.151,10.651,27.441,31.955,32.857l22.567,5.236c20.22,4.694,32.497,16.248,32.497,35.024
	c0.18,8.124-2.528,16.067-7.402,22.567c0-18.776-9.749-28.886-33.038-35.024l-22.206-5.054
	C31.79,68.062,18.069,58.494,18.069,38.093C18.069,30.33,20.597,22.567,25.291,16.429"/>
<g>
	<path fill="#F37369" d="M91.005,84.852c9.568,6.138,13.901,14.804,13.901,27.261C96.783,122.403,82.881,128,66.453,128
		c-27.622,0-47.3-13.721-51.453-37.371h26.539c3.43,10.833,12.457,15.887,24.734,15.887C80.896,106.697,90.825,98.753,91.005,84.852
		 M39.192,41.884c-9.027-5.416-14.262-15.165-13.901-25.636C33.054,6.138,46.413,0,62.662,0c28.344,0,44.592,14.985,48.744,35.927
		H85.77c-2.889-8.305-9.929-14.804-22.748-14.804C49.122,21.303,39.733,29.247,39.192,41.884"/>
</g>
</svg>
