<svg version="1.1" id="Layer_1" xmlns="http://www.w3.org/2000/svg" xmlns:xlink="http://www.w3.org/1999/xlink" x="0px" y="0px"
	 width="128px" height="128px" viewBox="0 0 128 128" enable-background="new 0 0 128 128" xml:space="preserve">
<path fill="#F37369" d="M95.51,60.238v16.245h-5.233V57.694L95.51,60.238z"/>
<path fill="#F7A29A" d="M21.442,73.468l3.925,3.416l16.536-8.613l-1.708-4.106L21.442,73.468z M90.276,63.001l13.301-6.905
	l-2.253-3.889l-11.048,5.487V63.001z"/>
<path fill="#F37369" d="M52.843,58.967v17.517h-5.016V51.517L52.843,58.967z M21.442,73.468l3.925,3.416l7.56-18.898l-2.435-6.469
	L21.442,73.468z"/>
<path fill="#F04B3A" d="M30.492,51.517h5.161l9.558,24.967h-5.306L30.492,51.517z M53.606,51.517l11.012,17.045v7.922L47.827,51.517
	H53.606z M74.067,51.517h5.196v24.967h-5.196V51.517z M90.276,56.096H82.28v-4.579h18.645l2.652,4.579H95.51H90.276z"/>
<path fill="#F7A29A" d="M118.95,66.998v9.485h-5.16v-9.485"/>
<path fill="#F04B3A" d="M122.512,51.517l-8.722,15.481h5.16L128,51.517H122.512z"/>
<path fill="#F37369" d="M113.79,66.998l-9.013-15.481h5.669l6.069,10.611L113.79,66.998z"/>
<path fill="#F04B3A" d="M2.072,54.424c0,3.452,2.144,5.524,6.433,6.614l4.543,1.054c4.07,0.945,6.542,3.271,6.542,7.051
	c0.036,1.636-0.509,3.234-1.49,4.543c0-3.779-1.962-5.814-6.65-7.051l-4.47-1.018c-3.598-0.8-6.36-2.726-6.36-6.832
	C0.618,57.222,1.126,55.659,2.072,54.424"/>
<g>
	<path fill="#F37369" d="M64.618,67.289V51.517h5.015v24.967h-5.015V67.289z"/>
	<path fill="#F37369" d="M15.3,68.197c1.926,1.236,2.798,2.98,2.798,5.488c-1.635,2.071-4.434,3.198-7.741,3.198
		c-5.561,0-9.522-2.763-10.358-7.523h5.342c0.691,2.181,2.508,3.198,4.979,3.198C13.265,72.595,15.264,70.996,15.3,68.197
		 M4.87,59.548c-1.817-1.09-2.871-3.053-2.798-5.16c1.563-2.035,4.252-3.271,7.523-3.271c5.706,0,8.977,3.017,9.813,7.232h-5.161
		c-0.582-1.672-1.999-2.98-4.579-2.98C6.869,55.405,4.979,57.004,4.87,59.548"/>
</g>
</svg>
