<svg xmlns="http://www.w3.org/2000/svg" width="128" height="128" viewBox="-41.5 676.5 128 128" xml:space="preserve">
  <path fill="#FFF" d="M-36.631 714.761H81.631c2.305 0 4.174 1.869 4.174 4.174v43.131c0 2.305-1.869 4.174-4.174 4.174H-36.631c-2.305 0-4.174-1.869-4.174-4.174v-43.131c.001-2.305 1.87-4.174 4.174-4.174z"/>
  <path fill="#EAEAEA" d="M-36.631 714.065H81.631c2.689 0 4.87 2.18 4.87 4.869v43.131c0 2.689-2.18 4.869-4.87 4.869H-36.631c-2.689 0-4.869-2.18-4.869-4.869v-43.131c0-2.689 2.18-4.869 4.869-4.869zm0 1.391c-1.921 0-3.478 1.558-3.478 3.479v43.131c0 1.92 1.557 3.478 3.478 3.478H81.631c1.921 0 3.478-1.558 3.478-3.478v-43.131c0-1.921-1.557-3.479-3.478-3.479H-36.631z"/>
  <path d="M26.674 724.116v21.224l7.796-7.795 3.935 3.935-14.411 14.41-14.592-14.592 3.935-3.936 7.772 7.772v-21.018zM-23.459 754.81v-16.437l10.064 10.065 10.139-10.14v16.346H2.31v-29.781l-15.705 15.704-15.629-15.63v29.873z"/>
  <path fill="#F9AC00" d="m70.462 723.228 3.935 3.935L62.61 738.95l11.424 11.425-3.935 3.935-11.425-11.424-11.425 11.424-3.935-3.935 11.424-11.425-11.787-11.787 3.935-3.935 11.788 11.787z"/>
</svg>
