<?xml version="1.0" encoding="utf-8"?>
<!-- Generator: Adobe Illustrator 15.1.0, SVG Export Plug-In . SVG Version: 6.00 Build 0)  -->
<!DOCTYPE svg PUBLIC "-//W3C//DTD SVG 1.1//EN" "http://www.w3.org/Graphics/SVG/1.1/DTD/svg11.dtd">
<svg version="1.1" id="Layer_1" xmlns="http://www.w3.org/2000/svg" xmlns:xlink="http://www.w3.org/1999/xlink" x="0px" y="0px"
	 width="128px" height="128px" viewBox="0 0 128 128" enable-background="new 0 0 128 128" xml:space="preserve">
<path fill="#664A9E" d="M64,0l55.427,32v64L64,128L8.573,96V32L64,0z"/>
<path fill="#FFFFFF" d="M23.671,95.472c7.368,9.431,30.785,2.244,52.894-15.028c22.107-17.271,34.745-38.255,27.376-47.687
	c-7.367-9.431-30.784-2.244-52.893,15.027C28.94,65.058,16.302,86.04,23.671,95.472L23.671,95.472z M26.818,93.012
	c-2.443-3.127-1.376-9.267,3.279-16.997c4.903-8.14,13.225-17.125,23.409-25.082s20.916-13.858,30-16.646
	c8.627-2.646,14.843-2.197,17.286,0.931c2.444,3.128,1.376,9.268-3.279,16.998c-4.902,8.139-13.225,17.124-23.409,25.081
	s-20.916,13.859-30,16.646C35.479,96.59,29.263,96.14,26.818,93.012L26.818,93.012z"/>
<path fill="#FFFFFF" d="M103.94,95.472c7.369-9.432-5.269-30.415-27.376-47.688C54.456,30.513,31.038,23.326,23.671,32.757
	c-7.369,9.432,5.27,30.415,27.377,47.687C73.156,97.716,96.573,104.903,103.94,95.472L103.94,95.472z M100.793,93.012
	c-2.443,3.128-8.659,3.578-17.286,0.93c-9.084-2.786-19.815-8.688-30-16.646S35,60.354,30.099,52.215
	c-4.656-7.73-5.724-13.87-3.28-16.998c2.444-3.128,8.66-3.577,17.286-0.931c9.084,2.788,19.815,8.689,30,16.646
	s18.507,16.942,23.409,25.082C102.169,83.744,103.237,89.884,100.793,93.012L100.793,93.012z"/>
<path fill="#FFFFFF" d="M63.806,72.603c4.688,0,8.488-3.8,8.488-8.488c0-4.688-3.8-8.488-8.488-8.488s-8.488,3.801-8.488,8.488
	C55.317,68.803,59.117,72.603,63.806,72.603z"/>
</svg>
