<svg version="1.1" id="Layer_1" xmlns="http://www.w3.org/2000/svg" xmlns:xlink="http://www.w3.org/1999/xlink" x="0px" y="0px"
	  viewBox="911.5 1670.5 128 128" enable-background="new 911.5 1670.5 128 128" xml:space="preserve">
<path fill="#FF2D20" d="M1037.768,1699.457c0.046,0.171,0.07,0.347,0.07,0.522v27.476c0,0.718-0.384,1.381-1.007,1.737
	l-23.06,13.277v26.315c0,0.716-0.381,1.377-1.002,1.737l-48.136,27.711c-0.11,0.063-0.23,0.103-0.352,0.145
	c-0.045,0.016-0.087,0.043-0.135,0.056c-0.336,0.089-0.689,0.089-1.026,0c-0.056-0.016-0.105-0.045-0.157-0.065
	c-0.111-0.04-0.227-0.075-0.331-0.135l-48.126-27.711c-0.623-0.357-1.006-1.02-1.007-1.737v-82.425c0-0.18,0.024-0.355,0.07-0.525
	c0.015-0.059,0.05-0.11,0.069-0.168c0.038-0.105,0.073-0.213,0.129-0.311c0.037-0.065,0.092-0.118,0.137-0.178
	c0.059-0.08,0.11-0.163,0.178-0.233c0.059-0.058,0.133-0.1,0.198-0.149c0.073-0.061,0.138-0.126,0.22-0.174h0.003l24.064-13.854
	c0.62-0.356,1.384-0.356,2.003,0l24.064,13.854h0.006c0.08,0.051,0.146,0.113,0.22,0.171c0.065,0.05,0.138,0.095,0.195,0.15
	c0.07,0.072,0.12,0.155,0.181,0.235c0.042,0.06,0.1,0.112,0.135,0.178c0.058,0.1,0.09,0.205,0.131,0.311
	c0.02,0.058,0.055,0.109,0.069,0.17c0.046,0.171,0.069,0.347,0.07,0.523v51.481l20.053-11.546v-26.318
	c0-0.176,0.025-0.354,0.07-0.521c0.018-0.061,0.05-0.112,0.07-0.171c0.04-0.105,0.075-0.213,0.13-0.311
	c0.037-0.064,0.093-0.117,0.135-0.178c0.061-0.08,0.11-0.162,0.181-0.232c0.058-0.058,0.13-0.1,0.195-0.15
	c0.075-0.061,0.141-0.125,0.221-0.173h0.002l24.067-13.854c0.619-0.357,1.383-0.357,2.003,0l24.064,13.854
	c0.085,0.05,0.15,0.112,0.226,0.171c0.063,0.05,0.135,0.095,0.192,0.15c0.07,0.072,0.12,0.154,0.181,0.234
	c0.045,0.061,0.1,0.113,0.135,0.178c0.058,0.098,0.09,0.205,0.131,0.311C1037.72,1699.345,1037.753,1699.396,1037.768,1699.457
	L1037.768,1699.457z M1033.826,1726.296v-22.848l-8.421,4.848l-11.634,6.699v22.847l20.058-11.546H1033.826z M1009.762,1767.626
	v-22.863l-11.443,6.536l-32.679,18.65v23.078L1009.762,1767.626z M917.512,1689.829v77.797l44.116,25.398v-23.072l-23.047-13.044
	l-0.008-0.005l-0.01-0.005c-0.078-0.046-0.143-0.11-0.215-0.166c-0.063-0.05-0.136-0.09-0.191-0.145l-0.004-0.008
	c-0.065-0.063-0.111-0.141-0.166-0.21c-0.05-0.068-0.109-0.126-0.15-0.195l-0.002-0.008c-0.045-0.075-0.072-0.165-0.105-0.25
	c-0.032-0.076-0.075-0.146-0.096-0.226v-0.003c-0.024-0.095-0.029-0.195-0.039-0.293c-0.01-0.075-0.03-0.15-0.03-0.226v-53.795
	l-11.632-6.701l-8.421-4.843V1689.829z M939.573,1674.819l-20.05,11.541l20.045,11.541l20.048-11.543l-20.048-11.539H939.573z
	 M949.999,1746.847l11.632-6.696v-50.321l-8.421,4.848l-11.635,6.698v50.322L949.999,1746.847z M1011.768,1688.438l-20.048,11.541
	l20.048,11.542l20.046-11.544L1011.768,1688.438z M1009.762,1714.995l-11.634-6.699l-8.421-4.848v22.848l11.632,6.695l8.423,4.851
	V1714.995z M963.632,1766.481l29.405-16.788l14.699-8.389l-20.032-11.533l-23.065,13.279l-21.022,12.102L963.632,1766.481z"/>
</svg>
